<svg width="27" height="33" viewBox="0 0 27 33" fill="none" xmlns="http://www.w3.org/2000/svg">
<g filter="url(#filter0_d_191_2735)">
<path d="M15.9301 6.26861C15.9301 7.52026 14.9156 8.53479 13.6639 8.53479C12.4123 8.53479 11.3978 7.52026 11.3978 6.26861C11.3978 6.17572 11.4027 6.08527 11.4149 5.99481C11.5493 4.87273 12.5052 4 13.6639 4C14.8227 4 15.7761 4.87029 15.913 5.98994C15.9252 6.08039 15.9301 6.17327 15.9301 6.26861Z" fill="white"/>
<path d="M20.2522 21.6356L13.6712 28.2141L7.09274 21.6356L9.05578 19.6701C10.2341 20.8484 11.8647 21.5769 13.6639 21.5769C15.4632 21.5769 17.0986 20.846 18.2794 19.6628L20.2522 21.6356Z" fill="white"/>
<path d="M7.21987 14.0548C7.16853 14.3799 7.14164 14.7148 7.14164 15.0571C7.14164 16.3332 7.50833 17.5213 8.14393 18.526L6.12956 20.538C5.00502 18.9978 4.34253 17.0983 4.34253 15.0473C4.34253 13.8934 4.55277 12.7909 4.93657 11.7715C5.03191 11.5075 5.14193 11.2532 5.26171 11.0014C5.95843 9.56155 7.00963 8.32944 8.30284 7.42004L10.3319 9.44908C8.95066 10.2729 7.89702 11.5906 7.42276 13.16C7.33476 13.4509 7.26632 13.7492 7.21987 14.0548Z" fill="white"/>
<path d="M23 15.0473C23 17.0739 22.3522 18.9489 21.2545 20.4793L19.2304 18.4527C19.8367 17.465 20.1862 16.3014 20.1862 15.0571C20.1862 14.7515 20.1642 14.4508 20.1227 14.1574C20.0787 13.8274 20.0078 13.5047 19.9149 13.1918C19.448 11.6175 18.3992 10.2925 17.0204 9.46618L19.0568 7.4298C20.35 8.34409 21.3988 9.57864 22.0882 11.0185C22.2177 11.2874 22.3326 11.5612 22.4377 11.8424C22.7996 12.8422 23 13.9203 23 15.0473Z" fill="white"/>
</g>
<defs>
<filter id="filter0_d_191_2735" x="0.342529" y="0" width="26.6575" height="32.2139" filterUnits="userSpaceOnUse" color-interpolation-filters="sRGB">
<feFlood flood-opacity="0" result="BackgroundImageFix"/>
<feColorMatrix in="SourceAlpha" type="matrix" values="0 0 0 0 0 0 0 0 0 0 0 0 0 0 0 0 0 0 127 0" result="hardAlpha"/>
<feOffset/>
<feGaussianBlur stdDeviation="2"/>
<feComposite in2="hardAlpha" operator="out"/>
<feColorMatrix type="matrix" values="0 0 0 0 0 0 0 0 0 0 0 0 0 0 0 0 0 0 0.5 0"/>
<feBlend mode="normal" in2="BackgroundImageFix" result="effect1_dropShadow_191_2735"/>
<feBlend mode="normal" in="SourceGraphic" in2="effect1_dropShadow_191_2735" result="shape"/>
</filter>
</defs>
</svg>
