<svg width="117" height="25" viewBox="0 0 117 25" fill="none" xmlns="http://www.w3.org/2000/svg">
<path d="M12.2399 2.30814C12.2399 3.5598 11.2254 4.57432 9.97376 4.57432C8.72211 4.57432 7.70758 3.5598 7.70758 2.30814C7.70758 2.21525 7.71247 2.1248 7.7247 2.03435C7.85915 0.912258 8.81501 0.0395307 9.97376 0.0395307C11.1325 0.0395307 12.0859 0.909824 12.2228 2.02947C12.2351 2.11992 12.2399 2.2128 12.2399 2.30814Z" fill="#364A5E"/>
<path d="M16.562 17.6751L9.98106 24.2536L3.40256 17.6751L5.36559 15.7096C6.5439 16.8879 8.17448 17.6164 9.97373 17.6164C11.773 17.6164 13.4084 16.8855 14.5892 15.7023L16.562 17.6751Z" fill="#364A5E"/>
<path d="M3.52968 10.0943C3.47835 10.4194 3.45145 10.7544 3.45145 11.0966C3.45145 12.3727 3.81814 13.5608 4.45375 14.5655L2.43937 16.5775C1.31484 15.0374 0.652344 13.1379 0.652344 11.0868C0.652344 9.93296 0.86258 8.83043 1.24639 7.81102C1.34173 7.54699 1.45174 7.29276 1.57153 7.04096C2.26825 5.60108 3.31944 4.36897 4.61265 3.45957L6.6417 5.48861C5.26048 6.31246 4.20684 7.63011 3.73258 9.19957C3.64457 9.49048 3.57613 9.78873 3.52968 10.0943Z" fill="#39A58E"/>
<path d="M19.3098 11.0868C19.3098 13.1134 18.662 14.9884 17.5643 16.5188L15.5402 14.4922C16.1465 13.5046 16.496 12.3409 16.496 11.0966C16.496 10.791 16.474 10.4903 16.4325 10.197C16.3885 9.86694 16.3176 9.54425 16.2247 9.23133C15.7578 7.65699 14.709 6.332 13.3302 5.50571L15.3666 3.46933C16.6598 4.38362 17.7086 5.61817 18.398 7.05806C18.5275 7.32697 18.6424 7.60077 18.7476 7.8819C19.1094 8.88176 19.3098 9.95984 19.3098 11.0868Z" fill="#39A58E"/>
<path d="M21.8658 9.13448H25.4566V11.5598H25.5196C25.8556 10.8039 26.4331 10.1424 27.252 9.57545C28.092 8.98749 29.0789 8.6935 30.2129 8.6935C31.1998 8.6935 32.0398 8.87199 32.7327 9.22897C33.4467 9.56495 34.0241 10.0164 34.4651 10.5834C34.9271 11.1504 35.2631 11.8013 35.4731 12.5363C35.683 13.2712 35.788 14.0272 35.788 14.8042V24.2536H32.0083V15.8751C32.0083 15.4341 31.9768 14.9721 31.9138 14.4892C31.8508 14.0062 31.7143 13.5757 31.5043 13.1977C31.2943 12.7988 31.0003 12.4733 30.6223 12.2213C30.2654 11.9693 29.7824 11.8433 29.1734 11.8433C28.5645 11.8433 28.0395 11.9693 27.5985 12.2213C27.1575 12.4523 26.7901 12.7568 26.4961 13.1347C26.2231 13.5127 26.0131 13.9537 25.8661 14.4577C25.7191 14.9406 25.6456 15.4341 25.6456 15.9381V24.2536H21.8658V9.13448Z" fill="#364A5E"/>
<path d="M38.3441 16.1901C38.3441 14.9931 38.554 13.9117 38.974 12.9458C39.415 11.9588 40.003 11.1189 40.7379 10.4259C41.4729 9.73294 42.3443 9.19747 43.3523 8.81949C44.3602 8.44152 45.4312 8.25253 46.5651 8.25253C47.699 8.25253 48.77 8.44152 49.7779 8.81949C50.7858 9.19747 51.6573 9.73294 52.3922 10.4259C53.1272 11.1189 53.7047 11.9588 54.1246 12.9458C54.5656 13.9117 54.7861 14.9931 54.7861 16.1901C54.7861 17.387 54.5656 18.4789 54.1246 19.4659C53.7047 20.4528 53.1272 21.3033 52.3922 22.0172C51.6573 22.7102 50.7858 23.2562 49.7779 23.6551C48.77 24.0541 47.699 24.2536 46.5651 24.2536C45.4312 24.2536 44.3602 24.0541 43.3523 23.6551C42.3443 23.2562 41.4729 22.7102 40.7379 22.0172C40.003 21.3033 39.415 20.4528 38.974 19.4659C38.554 18.4789 38.3441 17.387 38.3441 16.1901ZM42.1868 16.1901C42.1868 16.778 42.2708 17.366 42.4388 17.954C42.6278 18.5419 42.9008 19.0669 43.2578 19.5289C43.6148 19.9909 44.0662 20.3688 44.6122 20.6628C45.1582 20.9568 45.8091 21.1038 46.5651 21.1038C47.321 21.1038 47.972 20.9568 48.518 20.6628C49.0639 20.3688 49.5154 19.9909 49.8724 19.5289C50.2294 19.0669 50.4919 18.5419 50.6598 17.954C50.8488 17.366 50.9433 16.778 50.9433 16.1901C50.9433 15.6021 50.8488 15.0246 50.6598 14.4577C50.4919 13.8697 50.2294 13.3447 49.8724 12.8828C49.5154 12.4208 49.0639 12.0533 48.518 11.7803C47.972 11.4863 47.321 11.3393 46.5651 11.3393C45.8091 11.3393 45.1582 11.4863 44.6122 11.7803C44.0662 12.0533 43.6148 12.4208 43.2578 12.8828C42.9008 13.3447 42.6278 13.8697 42.4388 14.4577C42.2708 15.0246 42.1868 15.6021 42.1868 16.1901Z" fill="#364A5E"/>
<path d="M75.3906 8.6935C76.3775 8.6935 77.2175 8.87199 77.9105 9.22897C78.6244 9.56495 79.2019 10.0164 79.6429 10.5834C80.1048 11.1504 80.4408 11.8013 80.6508 12.5363C80.8608 13.2712 80.9658 14.0272 80.9658 14.8042V24.2536H77.186V15.8751C77.186 15.4341 77.1545 14.9721 77.0915 14.4892C77.0285 14.0062 76.892 13.5757 76.682 13.1977C76.472 12.7988 76.1781 12.4733 75.8001 12.2213C75.4431 11.9693 74.9601 11.8433 74.3512 11.8433C73.7632 11.8433 73.2592 11.9693 72.8392 12.2213C72.4193 12.4733 72.0728 12.7988 71.7998 13.1977C71.5268 13.5967 71.3273 14.0482 71.2013 14.5522C71.0753 15.0351 71.0123 15.5181 71.0123 16.0011V24.2536H67.2326V15.1191C67.2326 14.1742 67.0016 13.3972 66.5396 12.7883C66.0986 12.1583 65.3952 11.8433 64.4292 11.8433C63.8623 11.8433 63.3688 11.9693 62.9488 12.2213C62.5288 12.4523 62.1824 12.7568 61.9094 13.1347C61.6574 13.5127 61.4579 13.9537 61.3109 14.4577C61.1849 14.9406 61.1219 15.4341 61.1219 15.9381V24.2536H57.3421V9.13448H60.9329V11.5598H60.9959C61.1639 11.1819 61.3844 10.8249 61.6574 10.4889C61.9514 10.1529 62.2873 9.84844 62.6653 9.57545C63.0643 9.30247 63.5158 9.09248 64.0198 8.94549C64.5237 8.7775 65.0802 8.6935 65.6892 8.6935C66.8651 8.6935 67.8415 8.95599 68.6185 9.48096C69.3954 10.0059 69.9939 10.6989 70.4139 11.5598C70.9179 10.6359 71.5898 9.93243 72.4298 9.44946C73.2697 8.94549 74.2567 8.6935 75.3906 8.6935Z" fill="#364A5E"/>
<path d="M93.9792 21.9542H93.8847C93.5067 22.6262 92.8978 23.1827 92.0578 23.6236C91.2179 24.0436 90.2624 24.2536 89.1915 24.2536C88.5825 24.2536 87.942 24.1696 87.2701 24.0016C86.6191 23.8546 86.0101 23.6026 85.4432 23.2457C84.8972 22.8677 84.4352 22.3847 84.0573 21.7968C83.7003 21.1878 83.5218 20.4423 83.5218 19.5604C83.5218 18.4264 83.8368 17.5235 84.4667 16.8515C85.1177 16.1796 85.9472 15.6651 86.9551 15.3081C87.963 14.9511 89.076 14.7202 90.2939 14.6152C91.5328 14.4892 92.7403 14.4262 93.9162 14.4262V14.0482C93.9162 13.1032 93.5697 12.4103 92.8768 11.9693C92.2048 11.5073 91.3963 11.2764 90.4514 11.2764C89.6534 11.2764 88.887 11.4443 88.152 11.7803C87.4171 12.1163 86.8081 12.5258 86.3251 13.0088L84.3722 10.7094C85.2332 9.91143 86.2201 9.31297 87.3331 8.91399C88.467 8.51501 89.6114 8.31552 90.7664 8.31552C92.1103 8.31552 93.2127 8.50451 94.0737 8.88249C94.9556 9.26047 95.6486 9.75394 96.1526 10.3629C96.6565 10.9719 97.003 11.6543 97.192 12.4103C97.402 13.1662 97.507 13.9222 97.507 14.6782V23.8756H93.9792V21.9542ZM93.9162 16.9775H93.0657C92.4568 16.9775 91.8163 17.009 91.1444 17.072C90.4724 17.114 89.8529 17.2295 89.286 17.4185C88.719 17.5865 88.2465 17.8385 87.8685 18.1745C87.4906 18.4894 87.3016 18.9304 87.3016 19.4974C87.3016 19.8544 87.3751 20.1588 87.5221 20.4108C87.6901 20.6418 87.9 20.8308 88.152 20.9778C88.404 21.1248 88.6875 21.2298 89.0025 21.2928C89.3175 21.3558 89.6324 21.3873 89.9474 21.3873C91.2493 21.3873 92.2363 21.0408 92.9083 20.3478C93.5802 19.6549 93.9162 18.7099 93.9162 17.513V16.9775Z" fill="#364A5E"/>
<path d="M116.348 23.8126H112.757V21.5448H112.694C112.169 22.4267 111.434 23.0987 110.489 23.5606C109.565 24.0226 108.568 24.2536 107.497 24.2536C106.342 24.2536 105.302 24.0436 104.378 23.6236C103.475 23.1827 102.698 22.6052 102.047 21.8912C101.417 21.1563 100.924 20.3058 100.567 19.3399C100.231 18.3529 100.063 17.303 100.063 16.1901C100.063 15.0771 100.241 14.0377 100.598 13.0717C100.955 12.1058 101.459 11.2659 102.11 10.5519C102.761 9.83794 103.538 9.28147 104.441 8.88249C105.344 8.46251 106.331 8.25253 107.402 8.25253C108.095 8.25253 108.715 8.33652 109.26 8.50451C109.806 8.6515 110.279 8.84049 110.678 9.07148C111.098 9.30247 111.455 9.55445 111.749 9.82743C112.043 10.1004 112.284 10.3629 112.473 10.6149H112.568V0H116.348V23.8126ZM103.906 16.1901C103.906 16.778 103.99 17.366 104.158 17.954C104.347 18.5419 104.62 19.0669 104.977 19.5289C105.334 19.9909 105.785 20.3688 106.331 20.6628C106.877 20.9568 107.518 21.1038 108.253 21.1038C108.946 21.1038 109.565 20.9673 110.111 20.6943C110.657 20.4003 111.119 20.0224 111.497 19.5604C111.896 19.0984 112.19 18.5839 112.379 18.017C112.589 17.429 112.694 16.841 112.694 16.2531C112.694 15.6651 112.589 15.0771 112.379 14.4892C112.19 13.9012 111.896 13.3762 111.497 12.9143C111.119 12.4523 110.657 12.0743 110.111 11.7803C109.565 11.4863 108.946 11.3393 108.253 11.3393C107.518 11.3393 106.877 11.4863 106.331 11.7803C105.785 12.0533 105.334 12.4208 104.977 12.8828C104.62 13.3447 104.347 13.8697 104.158 14.4577C103.99 15.0246 103.906 15.6021 103.906 16.1901Z" fill="#364A5E"/>
</svg>
