<svg width="24" height="25" viewBox="0 0 24 25" fill="none" xmlns="http://www.w3.org/2000/svg">
<path d="M1 22.5H23" stroke="#39A58E" stroke-width="1.5" stroke-miterlimit="10" stroke-linecap="round" stroke-linejoin="round"/>
<path d="M19.7803 22.5101V18.05" stroke="#39A58E" stroke-width="1.5" stroke-miterlimit="10" stroke-linecap="round" stroke-linejoin="round"/>
<path d="M19.8001 11.3901C18.5801 11.3901 17.6001 12.3701 17.6001 13.5901V15.8601C17.6001 17.0801 18.5801 18.0601 19.8001 18.0601C21.0201 18.0601 22.0001 17.0801 22.0001 15.8601V13.5901C22.0001 12.3701 21.0201 11.3901 19.8001 11.3901Z" stroke="#39A58E" stroke-width="1.5" stroke-miterlimit="10" stroke-linecap="round" stroke-linejoin="round"/>
<path d="M2.1001 22.5V6.53003C2.1001 4.52003 3.10015 3.51001 5.09015 3.51001H11.3201C13.3101 3.51001 14.3001 4.52003 14.3001 6.53003V22.5" stroke="#39A58E" stroke-width="1.5" stroke-miterlimit="10" stroke-linecap="round" stroke-linejoin="round"/>
<path d="M5.7998 8.75H10.7498" stroke="#39A58E" stroke-width="1.5" stroke-miterlimit="10" stroke-linecap="round" stroke-linejoin="round"/>
<path d="M5.7998 12.5H10.7498" stroke="#39A58E" stroke-width="1.5" stroke-miterlimit="10" stroke-linecap="round" stroke-linejoin="round"/>
<path d="M8.25 22.5V18.75" stroke="#39A58E" stroke-width="1.5" stroke-miterlimit="10" stroke-linecap="round" stroke-linejoin="round"/>
</svg>
