<svg width="24" height="25" viewBox="0 0 24 25" fill="none" xmlns="http://www.w3.org/2000/svg">
<path d="M21.4998 5.51675C21.4998 6.42675 21.0698 7.23675 20.4098 7.75675C19.9298 8.13675 19.3198 8.36675 18.6498 8.36675C17.0698 8.36675 15.7998 7.09675 15.7998 5.51675C15.7998 4.84675 16.0298 4.24675 16.4098 3.75675H16.4198C16.9298 3.09675 17.7398 2.66675 18.6498 2.66675C20.2298 2.66675 21.4998 3.93675 21.4998 5.51675Z" stroke="#292D32" stroke-width="1.5" stroke-linecap="round" stroke-linejoin="round"/>
<path d="M8.2 5.51675C8.2 7.09675 6.93 8.36675 5.35 8.36675C4.68 8.36675 4.08 8.13675 3.59 7.75675C2.93 7.23675 2.5 6.42675 2.5 5.51675C2.5 3.93675 3.77 2.66675 5.35 2.66675C6.26 2.66675 7.07 3.09675 7.59 3.75675C7.97 4.24675 8.2 4.84675 8.2 5.51675Z" stroke="#292D32" stroke-width="1.5" stroke-linecap="round" stroke-linejoin="round"/>
<path d="M21.4998 18.8168C21.4998 20.3968 20.2298 21.6668 18.6498 21.6668C17.7398 21.6668 16.9298 21.2368 16.4198 20.5768H16.4098C16.0298 20.0968 15.7998 19.4868 15.7998 18.8168C15.7998 17.2368 17.0698 15.9668 18.6498 15.9668C19.3198 15.9668 19.9198 16.1968 20.4098 16.5768V16.5868C21.0698 17.0968 21.4998 17.9068 21.4998 18.8168Z" stroke="#292D32" stroke-width="1.5" stroke-linecap="round" stroke-linejoin="round"/>
<path d="M8.2 18.8168C8.2 19.4868 7.97 20.0868 7.59 20.5768C7.07 21.2468 6.26 21.6668 5.35 21.6668C3.77 21.6668 2.5 20.3968 2.5 18.8168C2.5 17.9068 2.93 17.0968 3.59 16.5868V16.5768C4.07 16.1968 4.68 15.9668 5.35 15.9668C6.93 15.9668 8.2 17.2368 8.2 18.8168Z" stroke="#292D32" stroke-width="1.5" stroke-linecap="round" stroke-linejoin="round"/>
<path d="M21.5 12.1667C21.5 13.7667 21.11 15.2567 20.41 16.5767C19.93 16.1967 19.32 15.9667 18.65 15.9667C17.07 15.9667 15.8 17.2367 15.8 18.8167C15.8 19.4867 16.03 20.0867 16.41 20.5767C15.09 21.2767 13.6 21.6667 12 21.6667C10.41 21.6667 8.91 21.2767 7.59 20.5767C7.97 20.0967 8.2 19.4867 8.2 18.8167C8.2 17.2367 6.93 15.9667 5.35 15.9667C4.68 15.9667 4.08 16.1967 3.59 16.5767C2.89 15.2567 2.5 13.7667 2.5 12.1667C2.5 10.5767 2.89 9.07675 3.59 7.75675C4.08 8.13675 4.68 8.36675 5.35 8.36675C6.93 8.36675 8.2 7.09675 8.2 5.51675C8.2 4.84675 7.97 4.24675 7.59 3.75675C8.91 3.05675 10.41 2.66675 12 2.66675C13.6 2.66675 15.09 3.05675 16.41 3.75675C16.03 4.23675 15.8 4.84675 15.8 5.51675C15.8 7.09675 17.07 8.36675 18.65 8.36675C19.32 8.36675 19.92 8.13675 20.41 7.75675C21.11 9.07675 21.5 10.5767 21.5 12.1667Z" stroke="#292D32" stroke-width="1.5" stroke-linecap="round" stroke-linejoin="round"/>
</svg>
