<svg width="24" height="25" viewBox="0 0 24 25" fill="none" xmlns="http://www.w3.org/2000/svg">
<path d="M13.7299 4.00989L15.4899 7.52989C15.7299 8.01989 16.3699 8.48989 16.9099 8.57989L20.0999 9.10989C22.1399 9.44989 22.6199 10.9299 21.1499 12.3899L18.6699 14.8699C18.2499 15.2899 18.0199 16.0999 18.1499 16.6799L18.8599 19.7499C19.4199 22.1799 18.1299 23.1199 15.9799 21.8499L12.9899 20.0799C12.4499 19.7599 11.5599 19.7599 11.0099 20.0799L8.01991 21.8499C5.87991 23.1199 4.57991 22.1699 5.13991 19.7499L5.84991 16.6799C5.97991 16.0999 5.74991 15.2899 5.32991 14.8699L2.84991 12.3899C1.38991 10.9299 1.85991 9.44989 3.89991 9.10989L7.08991 8.57989C7.61991 8.48989 8.25991 8.01989 8.49991 7.52989L10.2599 4.00989C11.2199 2.09989 12.7799 2.09989 13.7299 4.00989Z" stroke="#39A58E" stroke-width="1.5" stroke-linecap="round" stroke-linejoin="round"/>
</svg>
