<svg width="24" height="25" viewBox="0 0 24 25" fill="none" xmlns="http://www.w3.org/2000/svg">
<path d="M21 6.14673C17.67 5.81673 14.32 5.64673 10.98 5.64673C9 5.64673 7.02 5.74673 5.04 5.94673L3 6.14673" stroke="#292D32" stroke-width="1.5" stroke-linecap="round" stroke-linejoin="round"/>
<path d="M8.5 5.13675L8.72 3.82675C8.88 2.87675 9 2.16675 10.69 2.16675H13.31C15 2.16675 15.13 2.91675 15.28 3.83675L15.5 5.13675" stroke="#292D32" stroke-width="1.5" stroke-linecap="round" stroke-linejoin="round"/>
<path d="M18.8499 9.30664L18.1999 19.3766C18.0899 20.9466 17.9999 22.1666 15.2099 22.1666H8.7899C5.9999 22.1666 5.9099 20.9466 5.7999 19.3766L5.1499 9.30664" stroke="#292D32" stroke-width="1.5" stroke-linecap="round" stroke-linejoin="round"/>
<path d="M10.3301 16.6667H13.6601" stroke="#292D32" stroke-width="1.5" stroke-linecap="round" stroke-linejoin="round"/>
<path d="M9.5 12.6667H14.5" stroke="#292D32" stroke-width="1.5" stroke-linecap="round" stroke-linejoin="round"/>
</svg>
