<svg width="24" height="25" viewBox="0 0 24 25" fill="none" xmlns="http://www.w3.org/2000/svg">
<path d="M2.07006 5.09988C2.87006 1.63988 8.08006 1.63988 8.87006 5.09988C9.34006 7.12988 8.05006 8.84988 6.93006 9.91988C6.11006 10.6999 4.82006 10.6899 4.00006 9.91988C2.89006 8.84988 1.60006 7.12988 2.07006 5.09988Z" stroke="#292D32" stroke-width="1.5"/>
<path d="M15.07 17.0999C15.87 13.6399 21.11 13.6399 21.91 17.0999C22.38 19.1299 21.09 20.8499 19.96 21.9199C19.14 22.6999 17.84 22.6899 17.02 21.9199C15.89 20.8499 14.6 19.1299 15.07 17.0999Z" stroke="#292D32" stroke-width="1.5"/>
<path d="M12.0002 5.5H14.6802C16.5302 5.5 17.3902 7.79 16.0002 9.01L8.01019 16C6.62019 17.21 7.48019 19.5 9.32019 19.5H12.0002" stroke="#292D32" stroke-width="1.5" stroke-linecap="round" stroke-linejoin="round"/>
<path d="M5.48622 6H5.49777" stroke="#292D32" stroke-width="2" stroke-linecap="round" stroke-linejoin="round"/>
<path d="M18.4862 18H18.4978" stroke="#292D32" stroke-width="2" stroke-linecap="round" stroke-linejoin="round"/>
</svg>
