<svg width="24" height="25" viewBox="0 0 24 25" fill="none" xmlns="http://www.w3.org/2000/svg">
<path d="M22 6.83325H16" stroke="#292D32" stroke-width="1.5" stroke-miterlimit="10" stroke-linecap="round" stroke-linejoin="round"/>
<path d="M6 6.83325H2" stroke="#292D32" stroke-width="1.5" stroke-miterlimit="10" stroke-linecap="round" stroke-linejoin="round"/>
<path d="M10 10.3333C11.933 10.3333 13.5 8.76625 13.5 6.83325C13.5 4.90026 11.933 3.33325 10 3.33325C8.067 3.33325 6.5 4.90026 6.5 6.83325C6.5 8.76625 8.067 10.3333 10 10.3333Z" stroke="#292D32" stroke-width="1.5" stroke-miterlimit="10" stroke-linecap="round" stroke-linejoin="round"/>
<path d="M22 17.8333H18" stroke="#292D32" stroke-width="1.5" stroke-miterlimit="10" stroke-linecap="round" stroke-linejoin="round"/>
<path d="M8 17.8333H2" stroke="#292D32" stroke-width="1.5" stroke-miterlimit="10" stroke-linecap="round" stroke-linejoin="round"/>
<path d="M14 21.3333C15.933 21.3333 17.5 19.7662 17.5 17.8333C17.5 15.9003 15.933 14.3333 14 14.3333C12.067 14.3333 10.5 15.9003 10.5 17.8333C10.5 19.7662 12.067 21.3333 14 21.3333Z" stroke="#292D32" stroke-width="1.5" stroke-miterlimit="10" stroke-linecap="round" stroke-linejoin="round"/>
</svg>
